<svg xmlns="http://www.w3.org/2000/svg" viewBox="0 0 1536 1024">
<polygon points="370,470 352,473 332,497 320,531 320,565 302,548 273,536 253,538 244,552 246,589 267,632 297,656 325,659 335,681 269,684 249,693 252,766 263,814 283,849 310,863 372,866 419,859 443,830 459,776 462,690 387,681 394,662 419,660 452,633 466,602 468,569 458,557 437,557 395,582 404,553 402,516 390,487" fill="#7a8599"/>
<polygon points="542,59 508,156 530,197 514,231 535,253 520,307 543,358 526,380 548,407 534,468 556,497 540,546 564,572 548,630 572,656 557,712 580,736 601,833 631,849 1114,833 1129,846 1172,823 1307,419 1323,426 1374,270 1366,190 1331,177 1304,212 1150,671 1062,85 1024,66" fill="#7a8599"/>
</svg>